<svg id="Capa_1" data-name="Capa 1" xmlns="http://www.w3.org/2000/svg" viewBox="0 0 684.48 220.69"><defs><style>.cls-1{fill:#fff;}</style></defs><title>FIRMA-01</title><path class="cls-1" d="M204.43,213.38c-1.22-.89-1.42-2.07-1.11-3.64a39.4,39.4,0,0,0,.12-4.54,51.08,51.08,0,0,1,.76-6.28,12.47,12.47,0,0,1,1.48-2.78,9.32,9.32,0,0,0,1.08-2.47c.55-3.23,1-6.47,1.43-9.72.52-3.92,1-7.84,1.47-11.76.94-7.63,1.94-15.25,2.77-22.89.41-3.73.5-7.49.75-11.24.43-6.34,1.05-12.67,1.25-19s0-12.63-.1-18.94c0-3.15,0-6.31-.12-9.46-.42-7.78-.93-15.55-1.44-23.32q-1-15.61-2.06-31.22c-.05-.8-.12-1.6-.13-2.39a60.6,60.6,0,0,0-1.78-13.45c-.9-3.83-2.87-5.83-6.84-6a70.66,70.66,0,0,0-12.19.38c-14,1.88-27.76,4.91-41.52,8-9.7,2.15-19.48,4-29.17,6.21-16,3.64-31.89,7.42-47.81,11.23-6.91,1.65-13.78,3.46-20.64,5.28-3.93,1-7.79,2.35-11.71,3.4C34.42,50,29.85,51,25.35,52.19c-2,.55-3.84,1.59-5.82,2.16a59,59,0,0,1-7.23,1.6c-1,.16-1.75-.7-2-1.73a2.74,2.74,0,0,1,1.58-3,16.19,16.19,0,0,1,2.19-.62c17.66-4.42,35.31-8.89,53-13.22q21.64-5.3,43.35-10.31c7.31-1.7,14.67-3.13,22-4.72,13.81-3,27.6-6.08,41.43-9a164.24,164.24,0,0,1,24.64-3.62,27.24,27.24,0,0,1,6,.46A8.73,8.73,0,0,1,207,11.62c.41.24.77.55,1.18.79a4.62,4.62,0,0,1,2.43,2.66c.29,1,1.14,1.76,1.37,2.71.76,3.17,1.5,6.36,2,9.59.3,2.07,0,4.22.19,6.33.34,4.86.86,9.71,1.15,14.57.19,3.19.07,6.4.18,9.59.06,1.67.34,3.34.45,5s0,3.19.14,4.78c.14,2.06.38,4.11.57,6.17.3,3.22.67,6.44.85,9.66s.11,6.37.2,9.55c.08,2.87.26,5.74.32,8.62.06,2.71,0,5.43.06,8.15,0,.87.17,1.74.27,2.6a2.55,2.55,0,0,1,.1.82c-.89,3.51-.38,7.09-.61,10.63-.48,7.49-1,15-1.62,22.46-.57,6.77-1.24,13.53-2,20.27-.48,4.07-1.51,8.07-1.92,12.15A82.25,82.25,0,0,1,209.81,192a4.4,4.4,0,0,0,0,1.17c0,.56.23,1.23,0,1.65-1,1.73-.4,3.51-.31,5.27.06,1.27.27,2.53.4,3.8a1.89,1.89,0,0,1,0,.83c-.73,1.88-1.45,3.76-2.25,5.61C207,211.76,206.4,213.2,204.43,213.38Z"/><path class="cls-1" d="M414.47,104.68a3.93,3.93,0,0,0,.94.23c3.63,0,7.27.12,10.89-.09,6.42-.39,12.83-1,19.25-1.48a7.35,7.35,0,0,1,2.57.42,7.6,7.6,0,0,1-4.65,2.63c-6.52.67-13,1.59-19.54,2a91.68,91.68,0,0,1-12.2-.29,7.55,7.55,0,0,1-3.2-1.49,4.44,4.44,0,0,0-3-.79q-8.4.93-16.81,1.8-7.92.82-15.85,1.59a7.6,7.6,0,0,1-1.68,0c-2.14-.27-3-1.66-2.42-3.74.2-.68.36-1.38.58-2.2a8.65,8.65,0,0,0-.86.15c-4.76,1.36-9.46,3-14.28,4a36.06,36.06,0,0,1-13.93.59,6.22,6.22,0,0,1-4.23-4.34c-2.57.28-5.14.62-7.72.84q-8.18.7-16.37,1.29a9,9,0,0,1-2.37-.28c-2-.41-2.4-2.22-2.9-3.75a23.7,23.7,0,0,1-.74-4.36c-.18-1.36-.39-1.63-1.77-1.39-3.85.67-7.69,1.44-11.54,2.13s-7.57,1.25-11.33,2a31.61,31.61,0,0,0-4.78,1.43,2.69,2.69,0,0,0-1.74,2.5,2.93,2.93,0,0,1-3.3,2.54,2,2,0,0,1-1.52-2.14,23.15,23.15,0,0,1,.58-2.93,3.51,3.51,0,0,0-.64-3A5,5,0,0,1,269.2,96c0-.83,1.42-1.29,2.33-.76A5.84,5.84,0,0,1,273,96.44a2.67,2.67,0,0,0,2.7.85c5.33-.82,10.66-1.58,16-2.44,4-.65,8-1.44,12-2.15a1.71,1.71,0,0,0,1.61-2.16A50.85,50.85,0,0,1,305,83a17.82,17.82,0,0,1,1.37-5c.31-.84,2-1.07,2.91-.64a8.93,8.93,0,0,1,5,6.9,17.91,17.91,0,0,1-.09,5.33c-.23,1.76-1.69,2.73-3.07,3.64-1.7,1.12-1.71,1.12-1.35,3.08.2,1.06.36,2.13.59,3.18.37,1.67,1.13,2.37,2.85,2.3,4.95-.21,9.9-.46,14.84-.8,2.19-.15,4.36-.56,6.53-.87a4.08,4.08,0,0,0,3-1.75c1.4-2,3.61-2.7,5.86-3.19,1.56-.34,3.15-.56,4.73-.75a3,3,0,0,1,3.43,1.77A2.28,2.28,0,0,1,350,99.55c-2.56.9-5.14,1.75-7.68,2.69a5.78,5.78,0,0,0-1.34,1,5.78,5.78,0,0,0,1.4,1.15,13.83,13.83,0,0,0,7.79.25,111.33,111.33,0,0,0,17.49-4.56,12.88,12.88,0,0,1,3.85-.75c1.9-.08,2.7.94,2.48,2.79,0,.2-.06.39-.08.59-.11,2,.24,2.2,2.26,2,3.62-.34,7.25-.46,10.87-.77,6-.51,12-1.1,18-1.66a2.6,2.6,0,0,0,2-1.29,4.23,4.23,0,0,1,2.34-1.69c2.77-.53,5.59-.84,8.41-1.09a2.44,2.44,0,0,1,2.5,2c.17,1.24-.67,1.93-1.65,2.37-1.38.61-2.8,1.11-4.21,1.65Zm-105.21-14c1.26-.68,2.34-1,2.38-2.25a21.46,21.46,0,0,0-.23-2.33,7.76,7.76,0,0,0-2.16-5Z"/><path class="cls-1" d="M537.54,78.64c-.06,6.57-3.07,11.69-8,15.71-5.61,4.56-12.28,7-19,9.41-6.21,2.21-12.65,3-19.11,3.69-2.59.26-5.26-.24-7.89-.38a56.43,56.43,0,0,1-18.18-3.81,23.93,23.93,0,0,1-11.08-8.65c-1.69-2.43-2-5.06-2.14-7.83a20.48,20.48,0,0,1,5.31-14.36A55.38,55.38,0,0,1,474,58.86a44.21,44.21,0,0,1,16.18-4.49,60.49,60.49,0,0,1,9.66,0c2.32.15,4.24,1.57,6.14,2.82a1.61,1.61,0,0,1,.68.8c.32,1.26,1.22,1.39,2.3,1.4a64.3,64.3,0,0,1,16.38,1.89,17,17,0,0,1,9.5,6.52,15,15,0,0,1,2.67,8.57C537.56,77.12,537.54,77.88,537.54,78.64Zm-32-19a6.46,6.46,0,0,0-3.82-2.21c-6-1.38-11.92-.36-17.82.77a13.84,13.84,0,0,0-2,.78c-.78.28-1.58.53-2.36.8a44.47,44.47,0,0,0-4.46,1.6,23.3,23.3,0,0,0-3.65,2.29c-3.42,2.48-7,4.87-9.58,8.24a79,79,0,0,0-5.64,9.58,5.19,5.19,0,0,0-.52,2.43c0,2.4-.18,4.76.93,7.12A15.81,15.81,0,0,0,459,95.27a18.06,18.06,0,0,0,7.47,5.06A81.85,81.85,0,0,0,478,103.69a51.9,51.9,0,0,0,16,.35c10.5-1.32,20.58-3.83,29.91-9.11a26,26,0,0,0,8.67-8.05,16.2,16.2,0,0,0,2.79-11.94A12.62,12.62,0,0,0,528.7,65a29.37,29.37,0,0,0-17-3.41c-4.19.48-8.42.67-12.64.88a19.55,19.55,0,0,0-5.14,1,36.33,36.33,0,0,1-5.26,1.15,53.35,53.35,0,0,0-13.39,3.87c-3.59,1.63-7.36,3-10.21,5.9a14,14,0,0,0-4.32,8.31c-.19,1.75-.24,3.51-.3,5.26a2.35,2.35,0,0,1-1.55,2.41,3.82,3.82,0,0,1-1.68-3.91,50.91,50.91,0,0,0,.88-5.32c.24-3.67,2.43-6.34,4.65-8.84a14.89,14.89,0,0,1,5-3.16A96.12,96.12,0,0,1,493,61.5C497.18,60.85,501.37,60.25,505.55,59.63Z"/><path class="cls-1" d="M673.78,98.43a6,6,0,0,1-4.87,2.44q-9,.29-18.09.53c-5.79.16-11.59.23-17.37.46-6.86.28-13.72.76-20.58,1a39.52,39.52,0,0,1-6.07-.56,1.43,1.43,0,0,1-1.38-1.74,3,3,0,0,0-.32-1,3.91,3.91,0,0,0-1.08.63c-1.36,1.56-2.59,3.24-4,4.74a8.66,8.66,0,0,1-4.76,2.6c-2.5.47-4.09-.53-4.67-3-.34-1.43-.64-2.87-1-4.41-2.49.7-4.91,1.33-7.29,2.06A38.4,38.4,0,0,1,569.91,104c-.87,0-1.76.18-2.63.13-2.68-.16-4.18-1.81-3.78-4.43.27-1.76-.27-2.28-2-2.22-6.07.21-12.14.33-18.22.45-1,0-1.48.4-1.5,1.42a26.28,26.28,0,0,1-.2,3.11,2.81,2.81,0,0,1-1.79,2.62,3.37,3.37,0,0,1-3.63-.91c-2.24-2.27-2.21-5.11-2-8a1.75,1.75,0,0,1,1-1.21c1.23-.4,1.76-1.37,2.44-2.32.4-.55,1.08-1.23,1.65-1.25a2,2,0,0,1,2.13,1.59c.24.91.95,1.08,1.77,1.09l17.15.24a49.76,49.76,0,0,0,6.7,0,81.26,81.26,0,0,0,8.54-1.74,35.49,35.49,0,0,1,9.75-.92,2.75,2.75,0,0,1,2.62,1.76c.55,1.32.22,2.07-1.09,2.67-.47.21-.91.47-1.42.74-1-1.72-2.52-1.88-4.27-1.66-3.54.44-7.05,1-10.24,2.73-.88.48-1.68,1.11-2.51,1.67l.11.36a7,7,0,0,0,1.32.32,42.69,42.69,0,0,0,19.85-4.21c.44-.2.73-.71,1.09-1.07s.69-.94,1.11-1c.85-.16,2.27-.38,2.52,0a4.5,4.5,0,0,1,.59,3.11,13.41,13.41,0,0,0-.18,5c.13.87.56,1.06,1.21.7a8.14,8.14,0,0,0,2-1.45c1.73-1.83,3.38-3.73,5.07-5.6.35-.39.69-.78,1.06-1.14a3.77,3.77,0,0,1,6.51,1.59c.91,2.74.91,2.76,3.87,2.74,7.72,0,15.43-.07,23.15-.17q15.41-.19,30.81-.49c.92,0,1.83-.48,2.75-.49A11.22,11.22,0,0,1,673.78,98.43Z"/><path class="cls-1" d="M252.66,100.33c-3.77,1.13-7.39,2.22-11,3.29s-7,2.22-10.57,3c-1.56.34-3.31-.13-5-.37-.41-.06-.85-.58-1.11-1-1.58-2.53-.48-5.75,2.47-7.21a28.54,28.54,0,0,1,3.86-1.62c4.06-1.31,8.12-2.63,12.23-3.77a37.88,37.88,0,0,1,5.56-.83c1.28-.16,2.19.51,3.07,1.73-1.67.37-3.2.78-4.76,1-5,.83-9.67,2.73-14.36,4.53-1.58.61-2.9,1.93-4.31,3-.21.16-.27.53-.39.81.3.14.63.44.9.4,2.52-.4,5-.76,7.52-1.34,2-.47,3.86-1.26,5.8-1.86.87-.27,1.8-.37,2.67-.65,1.7-.56,3.42-1.1,5.06-1.81,1.84-.79,3.83-1.26,5.27-2.93.76-.88,1.91-.28,2.74.3s.34,1.36,0,2c-.39.83-.8,1.65-1.24,2.46a2.81,2.81,0,0,0-.08,2.75c.18.36.64.83,1,.81a13.47,13.47,0,0,0,3.34-.5c1.48-.46,2.65-.17,3.18,1.18.14.35,0,1.11-.2,1.24-2.36,1.33-4.74,2.71-7.64,2.19a3.17,3.17,0,0,1-2.76-2.47C253.57,103.32,253.14,102,252.66,100.33Z"/><path class="cls-1" d="M160.75,93.92c-3.19-.37-4.3-1.56-3.89-4.5.65-4.62,1.64-9.2,2.21-13.82.59-4.79.91-9.62,1.25-14.43.22-3.06.33-6.14.36-9.21,0-2.27-.14-4.53-.29-6.8a6,6,0,0,0-.55-1.57c-.5-1.32-.11-2.42,1-2.78s2.16.26,2.52,1.68a53.14,53.14,0,0,1,1.08,13.58c0,3.56,0,7.12-.14,10.67-.1,1.85-.69,3.67-1,5.51-.22,1.45-.29,2.92-.44,4.37-.39,3.61-.76,7.22-1.18,10.83C161.41,89.61,161.06,91.77,160.75,93.92Z"/><path class="cls-1" d="M571.33,82.14a8.49,8.49,0,0,1,1.26-1.1C578.7,77.5,584.81,74,591,70.47c4.86-2.76,9.76-5.43,14.64-8.15,1.73-1,2.23-1,3.74.35a14.32,14.32,0,0,1-2.13,1.95c-2.32,1.4-4.7,2.7-7.09,4-3,1.65-6.13,3.24-9.19,4.87-2.89,1.54-5.72,3.18-8.65,4.62s-6.23,2.85-9.36,4.23a5.3,5.3,0,0,1-1.36.21Z"/></svg>